<svg width="1440" height="29" viewBox="0 0 1440 29" fill="none" xmlns="http://www.w3.org/2000/svg">
<g clip-path="url(#clip0_438_6393)">
<path d="M720 29V1.50154C712.094 7.49488 714.355 0.320599 707.531 3.98588C696.014 10.1355 684.771 12.1542 673.239 7.49649C662.122 3.02404 650.979 6.97932 639.806 4.05999C627.962 0.953766 616.41 -3.89246 604.298 5.44232C596.504 11.4357 587.66 3.90371 579.285 3.81027C575.936 3.76354 572.567 -0.734678 569.228 1.50154C568.218 2.16854 567.329 4.90099 566.334 5.16682C555.929 8.08615 545.499 13.0564 535.098 12.8228C521.006 12.4974 511.932 -1.49512 498.097 7.49649C484.262 16.4865 500.732 10.5254 488.609 12.8228C477.337 14.9592 461.447 -3.45262 445.915 6.37838C435.004 13.3062 410.715 5.02665 399.531 6.37838C376.17 9.18977 360 14.5 336.281 12.8228C308.272 10.8412 310.495 9.18815 304.656 7.49649C278.84 -0.0209561 266.218 9.1511 240.351 4.61582C226.335 2.13149 215.6 7.32732 201.502 6.30265C195.457 5.85154 189.491 15.9951 183.44 12.6714C179.394 10.4513 179.272 -0.030622 171.277 8.93038C162.87 18.3505 150.22 11.9705 139.592 5.83704C136.011 3.7716 147.482 6.13027 126.919 9.73432C110.161 12.6714 104.886 14.4549 93.7839 11.0393C86.7832 8.88043 79.783 6.11577 72.7822 5.65015C61.5437 4.90421 50.1786 2.83877 39.0866 6.79888C23.302 12.4378 8.82149e-06 6.22371 8.82149e-06 12.2348V29L720 29Z" fill="white"/>
<path d="M719.539 28.9999V1.50131C727.45 7.49467 725.188 0.320356 732.016 3.98565C743.54 10.1353 754.79 12.154 766.33 7.49628C777.454 3.02381 788.604 6.97911 799.784 4.05976C811.636 0.953526 823.195 -3.89272 835.315 5.4421C843.114 11.4355 851.964 3.90348 860.344 3.81004C863.695 3.76332 867.066 -0.734926 870.407 1.50131C871.418 2.16831 872.308 4.90077 873.303 5.1666C883.715 8.08595 894.152 13.0562 904.559 12.8226C918.66 12.4972 927.741 -1.49537 941.584 7.49628C955.428 16.4863 938.947 10.5252 951.078 12.8226C962.357 14.959 978.257 -3.45288 993.799 6.37816C1004.72 13.306 1029.02 5.02643 1040.21 6.37816C1063.59 9.18956 1079.77 14.4998 1103.5 12.8226C1131.53 10.841 1129.31 9.18795 1135.15 7.49628C1160.98 -0.0212003 1173.61 9.1509 1199.49 4.6156C1213.52 2.13125 1224.26 7.32711 1238.37 6.30244C1244.42 5.85133 1250.39 15.9949 1256.44 12.6712C1260.49 10.4511 1260.61 -0.0308668 1268.61 8.93017C1277.03 18.3504 1289.68 11.9704 1300.32 5.83683C1303.9 3.77137 1292.42 6.13005 1313 9.73412C1329.77 12.6712 1335.05 14.4547 1346.16 11.0391C1353.16 8.88023 1360.17 6.11555 1367.17 5.64994C1378.42 4.90399 1389.79 2.83853 1400.89 6.79866C1416.68 12.4376 1440 6.2235 1440 12.2346V28.9999L719.539 28.9999Z" fill="white"/>
</g>
<defs>
<clipPath id="clip0_438_6393">
<rect width="1440" height="29" fill="white" transform="matrix(-1 0 0 -1 1440 29)"/>
</clipPath>
</defs>
</svg>
